<svg width="22" height="18" viewBox="0 0 22 18" fill="none" xmlns="http://www.w3.org/2000/svg">
<path d="M11.5303 16.864L19.1271 9.2672C20.9937 7.4006 21.2691 4.32976 19.5027 2.36811C19.0602 1.87533 18.522 1.47786 17.9208 1.19997C17.3197 0.922068 16.6682 0.769565 16.0062 0.751762C15.3441 0.733959 14.6854 0.851229 14.0702 1.09642C13.455 1.34161 12.8962 1.70957 12.4279 2.17786L11 3.60571L9.7672 2.3729C7.9006 0.506301 4.82976 0.230913 2.86811 1.99735C2.37533 2.43981 1.97786 2.97804 1.69997 3.57919C1.42207 4.18034 1.26956 4.83181 1.25176 5.49384C1.23396 6.15588 1.35123 6.8146 1.59642 7.42981C1.84161 8.04503 2.20957 8.60384 2.67786 9.07215L10.4697 16.864C10.6103 17.0046 10.8011 17.0836 11 17.0836C11.1989 17.0836 11.3897 17.0046 11.5303 16.864V16.864Z" stroke="#fff" stroke-width="1.5" stroke-linecap="round" stroke-linejoin="round"/>
</svg>
