<svg width="24" height="24" viewBox="0 0 24 24" fill="none" xmlns="http://www.w3.org/2000/svg">
<path d="M19.8438 7H4.1562C3.96517 7 3.78086 7.07562 3.63852 7.21239C3.49618 7.34917 3.40581 7.53748 3.38472 7.74131L2.00475 21.0746C1.99269 21.1911 2.00366 21.309 2.03693 21.4206C2.0702 21.5323 2.12503 21.6351 2.19784 21.7224C2.27065 21.8098 2.35979 21.8796 2.45946 21.9275C2.55912 21.9753 2.66706 22 2.77623 22H21.2238C21.3329 22 21.4409 21.9753 21.5405 21.9275C21.6402 21.8796 21.7294 21.8098 21.8022 21.7224C21.875 21.6351 21.9298 21.5323 21.9631 21.4206C21.9963 21.309 22.0073 21.1911 21.9953 21.0746L20.6153 7.74131C20.5942 7.53748 20.5038 7.34917 20.3615 7.21239C20.2191 7.07562 20.0348 7 19.8438 7Z" stroke="#fff" stroke-width="1.5" stroke-linecap="round" stroke-linejoin="round"/>
<path d="M8 10V6.44444C8 5.2657 8.42143 4.13524 9.17157 3.30175C9.92172 2.46825 10.9391 2 12 2C13.0609 2 14.0783 2.46825 14.8284 3.30175C15.5786 4.13524 16 5.2657 16 6.44444V10" stroke="#fff" stroke-width="1.5" stroke-linecap="round" stroke-linejoin="round"/>
</svg>
